PathFileType	4	(X/Y/Z)	Patient4_TMGait_0pt5_01_left_02.trc.trc
DataRate	CameraRate	NumFrames	NumMarkers	Units	OrigDataRate	OrigDataStartFrame	OrigNumFrames
76.086956521739	76.086956521739	5	33	mm	76.086956521739	89	       141
Frame#	Time	L.ASIS			Sacral			L.Shoulder			Chest			R.Shoulder			Neck			R.ASIS			R.Thigh.Superior			R.Thigh.Lateral			R.Thigh.Inferior			R.Patella			L.Thigh.Superior			L.Thigh.Lateral			L.Thigh.Inferior			L.Patella			L.Shank.Superior			L.Shank.Lateral			L.Shank.Inferior			R.Shank.Superior			R.Shank.Lateral			R.Shank.Inferior			R.Heel			R.Midfoot.Superior			R.Midfoot.Lateral			R.Toe			L.Heel			L.Midfoot.Lateral			L.Midfoot.Superior			L.Toe			L.Elbow			L.Wrist			R.Elbow			R.Wrist			
		X1	Y1	Z1	X2	Y2	Z2	X3	Y3	Z3	X4	Y4	Z4	X5	Y5	Z5	X6	Y6	Z6	X7	Y7	Z7	X8	Y8	Z8	X9	Y9	Z9	X10	Y10	Z10	X11	Y11	Z11	X12	Y12	Z12	X13	Y13	Z13	X14	Y14	Z14	X15	Y15	Z15	X16	Y16	Z16	X17	Y17	Z17	X18	Y18	Z18	X19	Y19	Z19	X20	Y20	Z20	X21	Y21	Z21	X22	Y22	Z22	X23	Y23	Z23	X24	Y24	Z24	X25	Y25	Z25	X26	Y26	Z26	X27	Y27	Z27	X28	Y28	Z28	X29	Y29	Z29	X30	Y30	Z30	X31	Y31	Z31	X32	Y32	Z32	X33	Y33	Z33	

89	3.676571428571	796.707993507207	954.785251540217	350.271849469904	573.929610062836	994.473032500638	492.993743864079	753.412016086294	1431.862902858768	330.003198282554	839.867890934280	1361.459096190804	500.585006556352	734.869234081582	1429.474621652394	666.127499281089	738.822869461974	1490.260858774289	480.909105970862	797.256147594698	937.655907994566	624.737984601620	864.020264650805	750.230964970447	590.510205540509	797.256967635968	633.839620033534	650.605364947829	880.321515702891	589.707118631143	570.290410433027	892.211899706988	499.843197582642	576.942502410095	820.618682625170	728.442510708200	376.181368207691	723.399220335912	621.119749732132	311.279260053490	796.343073711641	531.874908678311	374.888959153792	784.635296267174	449.736063364007	375.832265287748	723.473282811146	390.355493961119	367.763280035123	593.462729887284	328.436305488437	311.619695753724	589.101884785524	202.877961160124	374.687997536114	869.488175393477	409.492939326022	585.614183723289	806.009350393435	302.567650007699	649.619097214746	852.717816448968	209.407978983433	587.874959324804	725.417452398202	42.968687232154	561.434210443823	896.203723928361	98.143845981292	595.295139153737	809.422280039901	36.660480645790	635.496027010692	1016.950376743279	46.602187409870	622.588093996926	407.019450608047	103.149526061168	404.752909551938	478.318957360132	73.186556367957	329.282808056977	575.170678114763	107.668600198368	355.891491229725	679.455517056026	33.804663470305	336.117881185496	789.218027996402	1084.445234966406	197.177965383527	1022.068927118535	974.157794417114	228.749208487613	645.264180292546	1087.603501614620	760.507279076566	701.612120175587	832.208825463058	767.347262343497	
90	3.689714285714	795.809138390367	955.827381170811	352.614447327648	573.937874991432	995.256352250747	497.073454141424	751.589749069582	1432.742609951473	332.553197423921	839.775060948400	1362.397366245679	502.243541768807	736.423715711703	1430.256415117229	668.832357231243	738.280432431613	1491.032041530510	483.640822859621	798.461251190910	938.522891635182	626.776696797333	863.457340148380	749.698666923571	592.830937983798	795.628299615718	633.923873974049	652.773511983764	878.038031928531	589.122404108518	572.109506915405	889.141979924758	499.213937814183	578.393317204897	824.649431528549	730.744818275030	378.192517720428	731.127658218901	621.128803624845	313.082916623678	807.332819335700	533.241564348914	375.891888766651	796.620831384453	449.729495510898	375.750195392365	733.128359247892	390.717995999997	368.076674019745	600.477122138373	334.026922857878	312.586175417605	592.451463149243	208.160253165879	374.621191926737	865.686235072225	409.032777817120	586.899917939282	801.524243065251	302.396606460560	650.514292720806	847.352583385313	209.115899875741	588.415613628428	719.030375645820	43.007277885801	561.563801586585	889.895998670259	98.206118151861	595.518314865649	803.008711982600	36.707974069642	635.618729792444	1010.556403438772	46.433078459177	622.766896917406	406.653528659694	117.394514036080	404.756763413794	475.961704846615	83.128536759174	329.331983921447	574.638715708852	111.899345886970	355.614867124759	673.388420144643	32.906718036436	336.323997686887	784.928011549557	1084.202691354065	201.512425733499	1013.596060055194	963.638437247125	230.707462562899	653.954343282914	1086.708405082107	765.482411960978	721.480224930460	834.196847716802	772.204280321724	
91	3.702857142857	794.697367833249	956.684271730767	354.845782453062	573.782777441554	995.981572480660	501.104754631331	749.526094271073	1433.469256801208	334.960586254219	839.582016236462	1363.219710897883	503.679249423878	738.031479211035	1430.948798565774	671.381080573868	737.587860338291	1491.698886146221	486.232591291212	799.438982225148	939.278338150003	628.706488046706	862.569881097292	749.048286879215	595.372996811760	793.530739095305	633.920954798138	655.039802330369	875.444657713203	588.479785515113	574.192384181099	885.702693848993	498.563617369788	580.139608799744	828.675330519416	733.237843379081	380.136391126537	739.071718809042	621.410412622104	314.633205462046	818.424577066127	535.051522514217	376.760667499178	808.783207655387	450.250688923925	375.663771687281	743.205563588928	391.507202870634	368.326183321489	608.190139977857	339.991896915766	313.477692386652	596.510861542057	214.034471869082	374.654173863480	861.580927816307	408.542919698817	588.402254187874	796.701524824413	302.141069298950	651.492313472920	841.831753983437	208.796714959145	589.106407548308	712.555611418230	43.061174017748	561.685474248282	883.564519348860	98.180287747099	595.804158225113	796.504501707070	36.707408898678	635.742898100182	1004.100832862327	46.096779173620	622.951930490999	407.353877354735	132.414560525426	404.894349457975	474.500509794907	94.023501541284	329.466551110839	574.795108216935	116.909243461423	355.502491199635	667.794988052614	32.177647921014	336.507940643797	780.420341623306	1083.819000294539	205.771704963185	1004.123621905308	952.600000091696	232.235529800155	662.884310172555	1086.023212223443	770.610680291620	741.742858746521	836.930932467719	777.024097577630	
92	3.716000000000	793.378428640021	957.345643910532	356.945733612400	573.457134605485	996.628416388520	505.039539830411	747.265703864556	1434.035471613516	337.217001175550	839.289952975530	1363.905931847511	504.902584830410	739.654840777485	1431.536039452855	673.758000866544	736.782635655294	1492.257776826372	488.671819552228	800.170363196827	939.920606990081	630.534266528364	861.406700384734	748.331828140338	598.059577139605	791.080123979652	633.859926963271	657.349841943579	872.629347647760	587.814332314130	576.457391083548	881.988833514190	497.909486017145	582.104050667715	832.584055797106	735.923085377505	382.007824094463	747.041914969347	622.023882593376	315.930119624698	829.386947478626	537.345191799221	377.494417573770	820.924583268909	451.347956467357	375.578074692429	753.522614432387	392.758678524076	368.520243443249	616.439963697754	346.213080712912	314.297072829646	601.230191188548	220.345692761343	374.785520876661	857.261114326267	408.038422638515	590.055402096285	791.649531677331	301.832762960830	652.547131669238	836.211898250619	208.459517304290	589.914448325276	706.005281920054	43.133454992018	561.816076749370	877.215301297000	98.077741217707	596.137220535285	789.926147959486	36.669684738184	635.881717157474	997.599367171092	45.614056374539	623.139503915590	409.160137501105	147.678177295272	405.187208847715	474.071752588285	105.494520547681	329.697109013438	575.729382825451	122.586229350393	355.541245224765	663.008541430982	31.723211650569	336.623089125157	775.700098420756	1083.284486898005	209.932301094802	993.576271352374	941.159072330704	233.335035364420	672.054729098692	1085.536236885233	775.841346935463	762.265675293507	840.393096597451	781.746845755403	
93	3.729142857143	791.860477283052	957.835047915423	358.902850572508	572.956255173369	997.199702008019	508.836479533198	744.863001172952	1434.457836511299	339.318275233868	838.902318799270	1364.458485051379	505.932634049504	741.253236917988	1432.027425377073	675.951060161841	735.909601706676	1492.724862504329	490.946947696420	800.646477590506	940.464120114302	632.268503791239	860.008055641388	747.600099737158	600.797827631793	788.373179998533	633.770996822384	659.637967282950	869.649624707436	587.156126648691	578.803099947328	878.068586666722	497.270514476648	584.179806409185	836.265304257854	738.811579418103	383.805395924149	754.850209806316	623.023684771327	316.986241818793	840.011701416444	540.155211907580	378.089270915887	832.867306731056	453.060391949053	375.481153941285	763.915972484487	394.496350788286	368.656574905800	625.067870050501	352.541128758177	315.045062689768	606.589618397034	226.884627307630	374.995484179280	852.790480529977	407.539474651199	591.775034730623	786.454622994711	301.507096025745	653.652451262452	830.534490897327	208.121370247403	590.793710248406	699.398326762673	43.222684921401	561.966390848381	870.851737662435	97.922543197108	596.497693285202	783.296494208777	36.609276614722	636.042477008226	991.067602297076	45.035263704723	623.326436533660	412.110805528201	162.560863275475	405.642996854410	474.828073163465	117.055727169524	330.020969562168	577.576640944700	128.726479920313	355.694494151489	659.435433619550	31.636781159144	336.617690777363	770.760879623548	1082.616851339240	213.972232337710	981.884628080576	929.465324094012	234.021632142064	681.462623637110	1085.252610754865	781.107567024084	782.927040957479	844.579894672640	786.308750874770	
